<svg width="18" height="18" viewBox="0 0 18 18" fill="none" xmlns="http://www.w3.org/2000/svg">
<g clip-path="url(#clip0_518_27293)">
<path d="M3 1H7V11H3V1Z" stroke="white" stroke-width="2"/>
<path d="M3 1H7V11H3V1Z" stroke="white" stroke-width="2"/>
<path d="M7 4H10V8H7V4Z" stroke="white" stroke-width="2"/>
<path d="M7 4H10V8H7V4Z" stroke="white" stroke-width="2"/>
<path d="M10 13V15H0V13H10Z" fill="white"/>
<path d="M2 14V16H0V14H2Z" fill="white"/>
<path d="M10 14V16H8V14H10Z" fill="white"/>
<path d="M18 5V7H11V5H18Z" fill="white"/>
<path d="M9 10V12H1V10H9Z" fill="white"/>
<path d="M9 0V2H1V0H9Z" fill="white"/>
<path d="M10 16V18H0V16H10Z" fill="white"/>
</g>
<defs>
<clipPath id="clip0_518_27293">
<rect width="18" height="18" fill="white"/>
</clipPath>
</defs>
</svg>
