<svg width="18" height="18" viewBox="0 0 18 18" fill="none" xmlns="http://www.w3.org/2000/svg">
<path d="M5.94278 0.994297C7.26851 2.32003 7.26851 4.46946 5.94278 5.79519C4.61705 7.12092 2.46762 7.12092 1.14189 5.79519C-0.183835 4.46946 -0.183835 2.32003 1.14189 0.994297C2.46762 -0.331432 4.61705 -0.331432 5.94278 0.994297Z" fill="white"/>
<path d="M1.03753 11.9528C2.4209 10.5695 4.66378 10.5695 6.04715 11.9528C7.43052 13.3362 7.43052 15.5791 6.04715 16.9625C4.66378 18.3458 2.4209 18.3458 1.03753 16.9625C-0.345842 15.5791 -0.345842 13.3362 1.03753 11.9528Z" fill="white"/>
<path d="M17.0057 12.0572C18.3314 13.3829 18.3314 15.5324 17.0057 16.8581C15.68 18.1838 13.5305 18.1838 12.2048 16.8581C10.8791 15.5324 10.8791 13.3829 12.2048 12.0572C13.5305 10.7315 15.68 10.7315 17.0057 12.0572Z" fill="white"/>
<path d="M11.9961 0.994297C13.3218 -0.331432 15.518 -0.284705 16.9013 1.09866C18.2847 2.48203 18.3314 4.67819 17.0057 6.00392C15.68 7.32965 13.4838 7.28292 12.1004 5.89955C10.7171 4.51618 10.6704 2.32003 11.9961 0.994297Z" fill="white"/>
</svg>
