<svg width="18" height="18" viewBox="0 0 18 18" fill="none" xmlns="http://www.w3.org/2000/svg">
<path d="M9 16V14C9 12.8954 8.10457 12 7 12H3C1.89543 12 1 12.8954 1 14V16" stroke="#3B2F3B" stroke-width="2"/>
<path d="M9 16V14C9 12.8954 8.10457 12 7 12H3C1.89543 12 1 12.8954 1 14V16" stroke="#1A1A1A" stroke-width="2"/>
<path d="M11 12H15C16.1046 12 17 12.8954 17 14V16" stroke="#3B2F3B" stroke-width="2"/>
<path d="M11 12H15C16.1046 12 17 12.8954 17 14V16" stroke="#1A1A1A" stroke-width="2"/>
<rect x="2" y="3" width="6" height="6" rx="3" stroke="#3B2F3B" stroke-width="2"/>
<rect x="2" y="3" width="6" height="6" rx="3" stroke="#1A1A1A" stroke-width="2"/>
<rect x="12" y="4" width="4" height="4" rx="2" stroke="#3B2F3B" stroke-width="2"/>
<rect x="12" y="4" width="4" height="4" rx="2" stroke="#1A1A1A" stroke-width="2"/>
</svg>
