<svg width="23" height="20" viewBox="0 0 23 20" fill="none" xmlns="http://www.w3.org/2000/svg">
<path d="M10.875 17.7809L11.4997 18.2806L12.1244 17.7809C12.1623 17.7506 13.3692 16.7829 16.9275 13.6533C17.0007 13.589 17.0753 13.5236 17.1512 13.4571C18.0181 12.697 19.0444 11.7972 19.8644 10.7731C20.7652 9.64795 21.5 8.2747 21.5 6.63106C21.5 3.4817 18.8491 1 15.669 1C14.0425 1 12.5625 1.64475 11.5 2.69385C10.4375 1.64475 8.9575 1 7.33097 1C4.15087 1 1.5 3.4817 1.5 6.63106C1.5 8.2747 2.23475 9.64795 3.13565 10.7731C3.9556 11.7972 4.98186 12.697 5.84883 13.4571C5.92467 13.5235 5.99929 13.589 6.07245 13.6533C9.63066 16.7828 10.837 17.7505 10.875 17.7809Z" stroke="#3B2F3B" stroke-width="2"/>
<path d="M10.875 17.7809L11.4997 18.2806L12.1244 17.7809C12.1623 17.7506 13.3692 16.7829 16.9275 13.6533C17.0007 13.589 17.0753 13.5236 17.1512 13.4571C18.0181 12.697 19.0444 11.7972 19.8644 10.7731C20.7652 9.64795 21.5 8.2747 21.5 6.63106C21.5 3.4817 18.8491 1 15.669 1C14.0425 1 12.5625 1.64475 11.5 2.69385C10.4375 1.64475 8.9575 1 7.33097 1C4.15087 1 1.5 3.4817 1.5 6.63106C1.5 8.2747 2.23475 9.64795 3.13565 10.7731C3.9556 11.7972 4.98186 12.697 5.84883 13.4571C5.92467 13.5235 5.99929 13.589 6.07245 13.6533C9.63066 16.7828 10.837 17.7505 10.875 17.7809Z" stroke="#1A1A1A" stroke-width="2"/>
</svg>
