<svg width="18" height="18" viewBox="0 0 18 18" fill="none" xmlns="http://www.w3.org/2000/svg">
<path d="M10.9525 0.148323C10.245 -0.203063 9.38928 0.0912333 9.04127 0.80567L6.70668 5.59849C6.45248 6.12032 6.20723 6.63546 6.20723 7.23413V12.4114C6.20723 13.841 7.35504 15 8.77093 15H12.5811C13.8343 15 14.9039 14.0851 15.1099 12.8369L15.9645 7.65969C16.2249 6.08185 15.0199 4.6455 13.4357 4.6455H10.353L11.6036 2.07818C11.9516 1.36372 11.6601 0.499709 10.9525 0.148323Z" fill="#9199A0"/>
<path d="M5.35267 7.23413C5.35267 6.75758 4.97006 6.37125 4.4981 6.37125H2.85461C2.35778 6.37125 1.96568 6.79758 2.00238 7.29788L2.44549 13.338C2.47855 13.7886 2.85025 14.1371 3.29772 14.1371H4.4981C4.97006 14.1371 5.35267 13.7508 5.35267 13.2743V7.23413Z" fill="#9199A0"/>
</svg>
