<svg width="79" height="80" viewBox="0 0 79 80" fill="none" xmlns="http://www.w3.org/2000/svg">
<path d="M45.0007 47.9087L44.67 47.8441L44.3676 47.9929C43.0619 48.6355 41.5768 49 39.9977 49C34.7059 49 30.5 44.9253 30.5 40C30.5 35.0747 34.7059 31 39.9977 31C45.2895 31 49.4954 35.0747 49.4954 40C49.4954 41.8302 48.9197 43.5333 47.9258 44.9573L47.6196 45.396L47.8146 45.8941L48.901 48.6699L45.0007 47.9087Z" stroke="#3B2F3B" stroke-width="2"/>
<path d="M45.0007 47.9087L44.67 47.8441L44.3676 47.9929C43.0619 48.6355 41.5768 49 39.9977 49C34.7059 49 30.5 44.9253 30.5 40C30.5 35.0747 34.7059 31 39.9977 31C45.2895 31 49.4954 35.0747 49.4954 40C49.4954 41.8302 48.9197 43.5333 47.9258 44.9573L47.6196 45.396L47.8146 45.8941L48.901 48.6699L45.0007 47.9087Z" stroke="#1A1A1A" stroke-width="2"/>
</svg>
