<svg width="20" height="18" viewBox="0 0 20 18" fill="none" xmlns="http://www.w3.org/2000/svg">
<path d="M3.5 7.5V12.745C3.5 12.7806 3.47112 12.8095 3.43548 12.8095C2.36655 12.8095 1.5 13.6761 1.5 14.745V14.9048C1.5 16.0619 2.43807 17 3.59524 17H16.4048C17.5619 17 18.5 16.0619 18.5 14.9048V14.7756C18.5 13.6898 17.6197 12.8095 16.5339 12.8095C16.5152 12.8095 16.5 12.7944 16.5 12.7756V7.5C16.5 3.91015 13.5899 1 10 1C6.41015 1 3.5 3.91015 3.5 7.5Z" stroke="#3B2F3B" stroke-width="2"/>
<path d="M3.5 7.5V12.745C3.5 12.7806 3.47112 12.8095 3.43548 12.8095C2.36655 12.8095 1.5 13.6761 1.5 14.745V14.9048C1.5 16.0619 2.43807 17 3.59524 17H16.4048C17.5619 17 18.5 16.0619 18.5 14.9048V14.7756C18.5 13.6898 17.6197 12.8095 16.5339 12.8095C16.5152 12.8095 16.5 12.7944 16.5 12.7756V7.5C16.5 3.91015 13.5899 1 10 1C6.41015 1 3.5 3.91015 3.5 7.5Z" stroke="#1A1A1A" stroke-width="2"/>
</svg>
