<svg width="1876" height="7" viewBox="0 0 1876 7" fill="none" xmlns="http://www.w3.org/2000/svg">
<path d="M1 6C1 3.23858 3.23858 1 6 1M127.5 1C127.5 3.76142 125.261 6 122.5 6M47 6C44.2386 6 42 3.76142 42 1M81.5 1C84.2614 1 86.5 3.23858 86.5 6M164 6C164 3.23858 166.239 1 169 1M290.5 1C290.5 3.76142 288.261 6 285.5 6M210 6C207.239 6 205 3.76142 205 1M244.5 1C247.261 1 249.5 3.23858 249.5 6M327 6C327 3.23858 329.239 1 332 1M453.5 1C453.5 3.76142 451.261 6 448.5 6M373 6C370.239 6 368 3.76142 368 1M407.5 1C410.261 1 412.5 3.23858 412.5 6M490 6C490 3.23858 492.239 1 495 1M616.5 1C616.5 3.76142 614.261 6 611.5 6M536 6C533.239 6 531 3.76142 531 1M570.5 1C573.261 1 575.5 3.23858 575.5 6M653 6C653 3.23858 655.239 1 658 1M779.5 1C779.5 3.76142 777.261 6 774.5 6M699 6C696.239 6 694 3.76142 694 1M733.5 1C736.261 1 738.5 3.23858 738.5 6M816 6C816 3.23858 818.239 1 821 1M942.5 1C942.5 3.76142 940.261 6 937.5 6M862 6C859.239 6 857 3.76142 857 1M896.5 1C899.261 1 901.5 3.23858 901.5 6M979 6C979 3.23858 981.239 1 984 1M1105.5 1C1105.5 3.76142 1103.26 6 1100.5 6M1025 6C1022.24 6 1020 3.76142 1020 1M1059.5 1C1062.26 1 1064.5 3.23858 1064.5 6M1142 6C1142 3.23858 1144.24 1 1147 1M1268.5 1C1268.5 3.76142 1266.26 6 1263.5 6M1188 6C1185.24 6 1183 3.76142 1183 1M1222.5 1C1225.26 1 1227.5 3.23858 1227.5 6M1305 6C1305 3.23858 1307.24 1 1310 1M1431.5 1C1431.5 3.76142 1429.26 6 1426.5 6M1351 6C1348.24 6 1346 3.76142 1346 1M1385.5 1C1388.26 1 1390.5 3.23858 1390.5 6M1468 6C1468 3.23858 1470.24 1 1473 1M1594.5 1C1594.5 3.76142 1592.26 6 1589.5 6M1514 6C1511.24 6 1509 3.76142 1509 1M1548.5 1C1551.26 1 1553.5 3.23858 1553.5 6M1631 6C1631 3.23858 1633.24 1 1636 1M1757.5 1C1757.5 3.76142 1755.26 6 1752.5 6M1677 6C1674.24 6 1672 3.76142 1672 1M1711.5 1C1714.26 1 1716.5 3.23858 1716.5 6M1794 6C1794 3.23858 1796.24 1 1799 1M1920.5 1C1920.5 3.76142 1918.26 6 1915.5 6M1840 6C1837.24 6 1835 3.76142 1835 1M1874.5 1C1877.26 1 1879.5 3.23858 1879.5 6" stroke="#C4C4C4" stroke-width="2" stroke-linecap="round"/>
</svg>
