<svg width="22" height="20" viewBox="0 0 22 20" fill="none" xmlns="http://www.w3.org/2000/svg">
<path d="M15.169 2C17.8371 2 20 4.0734 20 6.63106C20 9.29024 17.6343 11.2602 15.7671 12.9024C12.2148 16.0268 11.0207 16.9832 10.9997 17C10.9787 16.9832 9.78525 16.0268 6.23288 12.9024C4.36573 11.2602 2 9.29024 2 6.63106C2 4.0734 4.1629 2 6.83097 2C8.60801 2 10.1609 2.91977 11 4.28979C11.8391 2.91977 13.392 2 15.169 2Z" fill="white"/>
<path d="M10.375 17.7809L10.9997 18.2806L11.6244 17.7809C11.6623 17.7506 12.8692 16.7829 16.4275 13.6533C16.5007 13.589 16.5753 13.5236 16.6512 13.4571C17.5181 12.697 18.5444 11.7972 19.3644 10.7731C20.2652 9.64795 21 8.2747 21 6.63106C21 3.4817 18.3491 1 15.169 1C13.5425 1 12.0625 1.64475 11 2.69385C9.93746 1.64475 8.4575 1 6.83097 1C3.65087 1 1 3.4817 1 6.63106C1 8.2747 1.73475 9.64795 2.63565 10.7731C3.4556 11.7972 4.48186 12.697 5.34883 13.4571C5.42467 13.5235 5.49929 13.589 5.57245 13.6533C9.13066 16.7828 10.337 17.7505 10.375 17.7809Z" stroke="black" stroke-opacity="0.3" stroke-width="2"/>
</svg>
