<svg width="22" height="21" viewBox="0 0 22 21" fill="none" xmlns="http://www.w3.org/2000/svg">
<path d="M5.57245 14.1533C9.13055 17.2827 10.3373 18.2502 10.3753 18.2807L11 18.7804L11.6247 18.2807C11.6247 18.2807 11.6247 18.2807 11.6247 18.2807C11.6248 18.2806 11.6249 18.2805 11.625 18.2804C11.6684 18.2457 12.8777 17.2755 16.4275 14.1533C16.5007 14.089 16.5753 14.0235 16.6512 13.9571C17.5181 13.197 18.5444 12.2972 19.3644 11.2731C20.2652 10.148 21 8.7747 21 7.13106C21 3.9817 18.3491 1.5 15.169 1.5C13.5425 1.5 12.0625 2.14475 11 3.19385C9.93746 2.14475 8.4575 1.5 6.83097 1.5C3.65087 1.5 1 3.9817 1 7.13106C1 8.7747 1.73475 10.148 2.63564 11.2731C3.4556 12.2972 4.48186 13.197 5.34883 13.9571C5.42467 14.0235 5.49929 14.089 5.57245 14.1533Z" fill="#F1592A"/>
<path d="M5.57245 14.1533C9.13055 17.2827 10.3373 18.2502 10.3753 18.2807L11 18.7804L11.6247 18.2807C11.6247 18.2807 11.6247 18.2807 11.6247 18.2807C11.6248 18.2806 11.6249 18.2805 11.625 18.2804C11.6684 18.2457 12.8777 17.2755 16.4275 14.1533C16.5007 14.089 16.5753 14.0235 16.6512 13.9571C17.5181 13.197 18.5444 12.2972 19.3644 11.2731C20.2652 10.148 21 8.7747 21 7.13106C21 3.9817 18.3491 1.5 15.169 1.5C13.5425 1.5 12.0625 2.14475 11 3.19385C9.93746 2.14475 8.4575 1.5 6.83097 1.5C3.65087 1.5 1 3.9817 1 7.13106C1 8.7747 1.73475 10.148 2.63564 11.2731C3.4556 12.2972 4.48186 13.197 5.34883 13.9571C5.42467 14.0235 5.49929 14.089 5.57245 14.1533Z" fill="#F7542E"/>
<path d="M5.57245 14.1533C9.13055 17.2827 10.3373 18.2502 10.3753 18.2807L11 18.7804L11.6247 18.2807C11.6247 18.2807 11.6247 18.2807 11.6247 18.2807C11.6248 18.2806 11.6249 18.2805 11.625 18.2804C11.6684 18.2457 12.8777 17.2755 16.4275 14.1533C16.5007 14.089 16.5753 14.0235 16.6512 13.9571C17.5181 13.197 18.5444 12.2972 19.3644 11.2731C20.2652 10.148 21 8.7747 21 7.13106C21 3.9817 18.3491 1.5 15.169 1.5C13.5425 1.5 12.0625 2.14475 11 3.19385C9.93746 2.14475 8.4575 1.5 6.83097 1.5C3.65087 1.5 1 3.9817 1 7.13106C1 8.7747 1.73475 10.148 2.63564 11.2731C3.4556 12.2972 4.48186 13.197 5.34883 13.9571C5.42467 14.0235 5.49929 14.089 5.57245 14.1533Z" stroke="white" stroke-width="2"/>
</svg>
