<svg width="20" height="20" viewBox="0 0 20 20" fill="none" xmlns="http://www.w3.org/2000/svg">
<path d="M6.94278 1.9943C8.26851 3.32003 8.26851 5.46946 6.94278 6.79519C5.61705 8.12092 3.46762 8.12092 2.14189 6.79519C0.816165 5.46946 0.816165 3.32003 2.14189 1.9943C3.46762 0.668568 5.61705 0.668568 6.94278 1.9943Z" fill="#3B2F3B"/>
<path d="M6.94278 1.9943C8.26851 3.32003 8.26851 5.46946 6.94278 6.79519C5.61705 8.12092 3.46762 8.12092 2.14189 6.79519C0.816165 5.46946 0.816165 3.32003 2.14189 1.9943C3.46762 0.668568 5.61705 0.668568 6.94278 1.9943Z" fill="#1A1A1A"/>
<path d="M2.03753 12.9528C3.4209 11.5695 5.66378 11.5695 7.04715 12.9528C8.43052 14.3362 8.43052 16.5791 7.04715 17.9625C5.66378 19.3458 3.4209 19.3458 2.03753 17.9625C0.654158 16.5791 0.654158 14.3362 2.03753 12.9528Z" fill="#3B2F3B"/>
<path d="M2.03753 12.9528C3.4209 11.5695 5.66378 11.5695 7.04715 12.9528C8.43052 14.3362 8.43052 16.5791 7.04715 17.9625C5.66378 19.3458 3.4209 19.3458 2.03753 17.9625C0.654158 16.5791 0.654158 14.3362 2.03753 12.9528Z" fill="#1A1A1A"/>
<path d="M18.0057 13.0572C19.3314 14.3829 19.3314 16.5324 18.0057 17.8581C16.68 19.1838 14.5305 19.1838 13.2048 17.8581C11.8791 16.5324 11.8791 14.3829 13.2048 13.0572C14.5305 11.7315 16.68 11.7315 18.0057 13.0572Z" fill="#3B2F3B"/>
<path d="M18.0057 13.0572C19.3314 14.3829 19.3314 16.5324 18.0057 17.8581C16.68 19.1838 14.5305 19.1838 13.2048 17.8581C11.8791 16.5324 11.8791 14.3829 13.2048 13.0572C14.5305 11.7315 16.68 11.7315 18.0057 13.0572Z" fill="#1A1A1A"/>
<path d="M12.9961 1.9943C14.3218 0.668568 16.518 0.715295 17.9013 2.09866C19.2847 3.48203 19.3314 5.67819 18.0057 7.00392C16.68 8.32965 14.4838 8.28292 13.1004 6.89955C11.7171 5.51618 11.6704 3.32003 12.9961 1.9943Z" fill="#3B2F3B"/>
<path d="M12.9961 1.9943C14.3218 0.668568 16.518 0.715295 17.9013 2.09866C19.2847 3.48203 19.3314 5.67819 18.0057 7.00392C16.68 8.32965 14.4838 8.28292 13.1004 6.89955C11.7171 5.51618 11.6704 3.32003 12.9961 1.9943Z" fill="#1A1A1A"/>
</svg>
